<?xml version="1.0"?>
<svg xmlns="http://www.w3.org/2000/svg" xmlns:xlink="http://www.w3.org/1999/xlink" version="1.1" id="Capa_1" x="0px" y="0px" viewBox="0 0 512 512" style="enable-background:new 0 0 512 512;" xml:space="preserve" width="512px" height="512px"><g><g>
	<g>
		<path d="M352,12.574c2.323-2.513,2.646-6.281,0.787-9.154c-1.86-2.873-5.431-4.12-8.674-3.03    c-2.32,0.78-57.196,20.016-91.11,100.068c-1.614,3.809,0.166,8.205,3.975,9.818c3.81,1.616,8.205-0.166,9.819-3.975    c13.428-31.697,30.383-52.821,44.403-66.225c-23.856,35.491-40.339,75.912-49.163,120.693    c-8.433,42.794-4.504,87.896,11.36,130.43c4.593,12.314,7.56,25.653,7.56,33.984c0,17.641-14.352,31.993-31.993,31.993    s-31.993-14.353-31.993-31.993c0-9.081,3.499-23.932,8.707-36.956c9.912-24.784,15.835-50.31,17.607-75.868    c2.158-31.152,7.437-59.781,15.69-85.092c1.282-3.933-0.866-8.16-4.799-9.443c-3.931-1.281-8.16,0.866-9.443,4.799    c-8.635,26.48-14.149,56.322-16.392,88.7c-1.664,24.002-7.239,48.004-16.572,71.341c-5.94,14.856-9.778,31.546-9.778,42.52    c0,25.902,21.072,46.974,46.974,46.974c25.901,0,46.974-21.072,46.974-46.974c0-10.127-3.259-25.154-8.504-39.219    c-14.896-39.937-18.595-82.228-10.699-122.299C288.31,104.921,313.633,54.086,352,12.574z" data-original="#000000" class="active-path" data-old_color="#000000" fill="#FAB2B5"/>
	</g>
</g><g>
	<g>
		<path d="M503.952,152.412H318.543c-20.651,0-37.45,16.8-37.45,37.45v10.779c0,1.368,0.026,2.736,0.065,4.106    c0.012,0.425,0.03,0.851,0.046,1.276c0.037,0.978,0.083,1.954,0.139,2.931c0.026,0.446,0.05,0.893,0.08,1.339    c0.081,1.21,0.176,2.421,0.288,3.629c0.014,0.153,0.024,0.306,0.038,0.457c0.13,1.359,0.284,2.716,0.452,4.071    c0.046,0.369,0.097,0.736,0.146,1.104c0.14,1.063,0.292,2.123,0.455,3.182c0.052,0.337,0.103,0.674,0.158,1.011    c0.234,1.446,0.481,2.889,0.758,4.324c0.009,0.046,0.026,0.088,0.036,0.133c2.86,14.706,7.991,28.891,15.248,41.932    c10.083,18.121,15.194,36.152,15.194,53.594c0,35.014-28.486,63.541-63.5,63.596c-35.014-0.055-63.5-28.582-63.5-63.596    c0-17.442,5.112-35.473,15.194-53.594c7.141-12.835,12.218-26.778,15.103-41.235c0.017-0.076,0.041-0.149,0.056-0.226    c0.027-0.135,0.049-0.272,0.075-0.406c0.102-0.52,0.194-1.043,0.29-1.564c0.149-0.812,0.293-1.625,0.427-2.44    c0.098-0.593,0.194-1.185,0.285-1.78c0.121-0.791,0.232-1.584,0.34-2.377c0.077-0.565,0.159-1.128,0.229-1.695    c0.157-1.262,0.298-2.526,0.42-3.791c0.048-0.491,0.084-0.984,0.127-1.476c0.078-0.89,0.151-1.781,0.212-2.671    c0.037-0.535,0.068-1.072,0.099-1.608c0.052-0.911,0.095-1.822,0.13-2.732c0.018-0.462,0.038-0.924,0.051-1.387    c0.039-1.369,0.065-2.737,0.065-4.105v-10.779c0-20.651-16.8-37.45-37.45-37.45H8.046c-4.136,0-7.49,3.354-7.49,7.49v46.618    v67.603c0,4.136,3.354,7.49,7.49,7.49s7.49-3.354,7.49-7.49v-57.054c1.683,1.159,3.19,2.594,4.446,4.305    c6.366,8.671,16.185,13.646,26.942,13.646c10.757,0,20.578-4.973,26.942-13.646c3.511-4.785,8.93-7.529,14.865-7.529    s11.354,2.744,14.866,7.529c6.365,8.672,16.185,13.646,26.942,13.646c10.757,0,20.578-4.974,26.943-13.646    c3.511-4.785,8.93-7.529,14.865-7.529c5.935,0,11.354,2.744,14.866,7.529c3.672,5.002,8.54,8.797,14.123,11.101    c-2.695,10.61-6.73,20.837-12.037,30.376c-11.337,20.374-17.084,40.856-17.084,60.876c0,43.168,35.04,78.353,78.171,78.575    c0.07,0.002,0.14,0.003,0.21,0.003h0.199c0.07,0,0.14-0.001,0.21-0.003c43.131-0.223,78.171-35.409,78.171-78.575    c0-20.02-5.747-40.503-17.084-60.876c-4.903-8.811-8.708-18.213-11.387-27.958c9.409-0.805,18.175-5.571,24.009-13.52    c3.511-4.785,8.93-7.529,14.865-7.529c5.935,0,11.354,2.744,14.866,7.529c6.365,8.672,16.184,13.646,26.942,13.646    c10.757,0,20.578-4.974,26.942-13.646c3.511-4.785,8.93-7.529,14.865-7.529s11.354,2.744,14.866,7.529    c6.366,8.672,16.185,13.646,26.942,13.646c10.757,0,20.577-4.973,26.942-13.646c1.274-1.736,2.806-3.186,4.517-4.351v162.813    c0,4.137,3.354,7.49,7.49,7.49c4.136,0,7.49-3.354,7.49-7.49V206.513v-46.611C511.442,155.765,508.088,152.412,503.952,152.412z     M199.291,212.512c0,0,0,0,0-0.001c-6.366-8.672-16.185-13.646-26.943-13.646c-10.757,0-20.577,4.973-26.941,13.646    c-3.512,4.786-8.93,7.53-14.866,7.53c-5.935,0-11.354-2.744-14.865-7.53c-6.366-8.671-16.185-13.646-26.943-13.646    c-10.757,0-20.577,4.973-26.942,13.646c-3.511,4.785-8.93,7.529-14.865,7.529c-5.935,0-11.354-2.744-14.866-7.529    c-4.218-5.747-9.944-9.875-16.523-12.005v-33.114h167.311c12.391,0,22.47,10.08,22.47,22.47v10.779    c0.001,5.509-0.354,11.04-1.062,16.531C202.352,215.96,200.669,214.389,199.291,212.512z M496.461,200.484    c-6.608,2.122-12.359,6.258-16.593,12.028c-3.512,4.785-8.93,7.529-14.865,7.529s-11.354-2.744-14.865-7.53    c-6.366-8.672-16.185-13.646-26.943-13.646c-10.757,0-20.577,4.973-26.942,13.646c-3.512,4.786-8.93,7.53-14.866,7.53    c-5.935,0-11.354-2.744-14.865-7.53c-6.366-8.672-16.185-13.646-26.942-13.646c-10.757,0-20.577,4.973-26.942,13.646    c-3.594,4.897-9.203,7.622-15.092,7.527c-0.059-0.391-0.112-0.784-0.168-1.175c-0.138-0.97-0.269-1.941-0.385-2.914    c-0.066-0.553-0.126-1.107-0.185-1.663c-0.104-0.987-0.197-1.974-0.279-2.963c-0.044-0.531-0.089-1.063-0.126-1.595    c-0.075-1.06-0.131-2.121-0.18-3.182c-0.021-0.458-0.049-0.915-0.065-1.373c-0.053-1.511-0.086-3.022-0.086-4.532v-10.779    c0-12.391,10.08-22.47,22.47-22.47h177.918V200.484z" data-original="#000000" class="active-path" data-old_color="#000000" fill="#FAB2B5"/>
	</g>
</g><g>
	<g>
		<path d="M503.952,402.308c-4.137,0-7.49,3.354-7.49,7.49v87.222H15.536V304.084c0-4.137-3.354-7.49-7.49-7.49    s-7.49,3.354-7.49,7.49V504.51c0,4.136,3.354,7.49,7.49,7.49h495.905c4.136,0,7.49-3.354,7.49-7.49v-94.712    C511.442,405.661,508.088,402.308,503.952,402.308z" data-original="#000000" class="active-path" data-old_color="#000000" fill="#FAB2B5"/>
	</g>
</g><g>
	<g>
		<path d="M123.404,262.436c-4.136,0-7.49,3.354-7.49,7.49s3.354,7.49,7.49,7.49c5.54,0,10.047,4.507,10.047,10.046    c0,5.54-4.507,10.047-10.047,10.047s-10.047-4.507-10.047-10.047c0-4.136-3.354-7.49-7.49-7.49c-4.136,0-7.49,3.354-7.49,7.49    c0,13.8,11.227,25.027,25.027,25.027s25.027-11.227,25.027-25.027C148.431,273.662,137.204,262.436,123.404,262.436z" data-original="#000000" class="active-path" data-old_color="#000000" fill="#FAB2B5"/>
	</g>
</g><g>
	<g>
		<path d="M68.598,313c-13.8,0-25.027,11.227-25.027,25.027s11.227,25.027,25.027,25.027s25.027-11.227,25.027-25.027    S82.397,313,68.598,313z M68.598,348.072c-5.54,0-10.047-4.507-10.047-10.047s4.507-10.047,10.047-10.047    s10.047,4.507,10.047,10.047S74.137,348.072,68.598,348.072z" data-original="#000000" class="active-path" data-old_color="#000000" fill="#FAB2B5"/>
	</g>
</g><g>
	<g>
		<path d="M76.908,380.85c-4.136,0-7.49,3.354-7.49,7.49c0,4.136,3.354,7.49,7.49,7.49c5.54,0,10.047,4.507,10.047,10.047    c0,5.54-4.507,10.047-10.047,10.047s-10.047-4.507-10.047-10.047c0-4.136-3.354-7.49-7.49-7.49c-4.136,0-7.49,3.354-7.49,7.49    c0,13.8,11.227,25.027,25.027,25.027c13.8,0,25.027-11.227,25.027-25.027C101.935,392.077,90.707,380.85,76.908,380.85z" data-original="#000000" class="active-path" data-old_color="#000000" fill="#FAB2B5"/>
	</g>
</g><g>
	<g>
		<path d="M129.947,334.91c-13.8,0-25.027,11.227-25.027,25.026c0,13.8,11.227,25.027,25.027,25.027    c13.8,0,25.027-11.227,25.027-25.027C154.973,346.137,143.747,334.91,129.947,334.91z M129.947,369.982    c-5.54,0-10.047-4.507-10.047-10.047s4.507-10.046,10.047-10.046c5.54,0,10.047,4.507,10.047,10.046    C139.993,365.476,135.487,369.982,129.947,369.982z" data-original="#000000" class="active-path" data-old_color="#000000" fill="#FAB2B5"/>
	</g>
</g><g>
	<g>
		<path d="M164.745,407.384c-13.8,0-25.027,11.227-25.027,25.027s11.227,25.027,25.027,25.027c13.8,0,25.027-11.227,25.027-25.027    S178.545,407.384,164.745,407.384z M164.745,442.458c-5.54,0-10.047-4.507-10.047-10.047s4.507-10.047,10.047-10.047    c5.54,0,10.047,4.507,10.047,10.047S170.285,442.458,164.745,442.458z" data-original="#000000" class="active-path" data-old_color="#000000" fill="#FAB2B5"/>
	</g>
</g><g>
	<g>
		<path d="M380.399,288.728c-13.8,0-25.027,11.227-25.027,25.027c0,13.8,11.227,25.027,25.027,25.027s25.027-11.227,25.027-25.027    C405.426,299.954,394.199,288.728,380.399,288.728z M380.399,323.8c-5.54,0-10.047-4.507-10.047-10.047    s4.507-10.047,10.047-10.047s10.047,4.507,10.047,10.047C390.446,319.294,385.939,323.8,380.399,323.8z" data-original="#000000" class="active-path" data-old_color="#000000" fill="#FAB2B5"/>
	</g>
</g><g>
	<g>
		<path d="M362.234,360.127c-4.136,0-7.49,3.354-7.49,7.49c0,4.136,3.354,7.49,7.49,7.49c5.54,0,10.047,4.507,10.047,10.047    c0,5.54-4.507,10.047-10.047,10.047c-5.54,0-10.047-4.507-10.047-10.047c0-4.136-3.354-7.49-7.49-7.49    c-4.137,0-7.49,3.354-7.49,7.49c0,13.8,11.227,25.027,25.027,25.027c13.8,0,25.027-11.227,25.027-25.027    C387.261,371.354,376.034,360.127,362.234,360.127z" data-original="#000000" class="active-path" data-old_color="#000000" fill="#FAB2B5"/>
	</g>
</g><g>
	<g>
		<path d="M443.532,266.241c-4.136,0-7.49,3.354-7.49,7.49c0,4.137,3.354,7.49,7.49,7.49c5.54,0,10.047,4.507,10.047,10.047    c0,5.54-4.507,10.047-10.047,10.047c-5.54,0-10.047-4.507-10.047-10.047c0-4.136-3.354-7.49-7.49-7.49    c-4.136,0-7.49,3.354-7.49,7.49c0,13.8,11.227,25.027,25.027,25.027c13.8,0,25.027-11.227,25.027-25.027    S457.332,266.241,443.532,266.241z" data-original="#000000" class="active-path" data-old_color="#000000" fill="#FAB2B5"/>
	</g>
</g><g>
	<g>
		<path d="M431.975,346.719c-13.8,0-25.027,11.227-25.027,25.027c0,13.8,11.227,25.027,25.027,25.027s25.027-11.227,25.027-25.027    C457.001,357.946,445.774,346.719,431.975,346.719z M431.975,381.792c-5.54,0-10.047-4.507-10.047-10.047    c0-5.54,4.507-10.047,10.047-10.047s10.047,4.507,10.047,10.047C442.021,377.285,437.514,381.792,431.975,381.792z" data-original="#000000" class="active-path" data-old_color="#000000" fill="#FAB2B5"/>
	</g>
</g><g>
	<g>
		<path d="M328.963,424.029c-13.8,0.001-25.027,11.227-25.027,25.027c0,13.8,11.227,25.027,25.027,25.027    s25.027-11.227,25.027-25.027S342.762,424.029,328.963,424.029z M328.963,459.103c-5.54,0-10.047-4.507-10.047-10.047    s4.507-10.047,10.047-10.047c5.54,0.001,10.047,4.507,10.047,10.047C339.009,454.596,334.502,459.103,328.963,459.103z" data-original="#000000" class="active-path" data-old_color="#000000" fill="#FAB2B5"/>
	</g>
</g><g>
	<g>
		<path d="M406.574,412.843c-13.8,0-25.027,11.227-25.027,25.027s11.227,25.027,25.027,25.027s25.027-11.227,25.027-25.027    S420.374,412.843,406.574,412.843z M406.574,447.916c-5.54,0-10.047-4.507-10.047-10.047s4.507-10.047,10.047-10.047    s10.047,4.507,10.047,10.047S412.114,447.916,406.574,447.916z" data-original="#000000" class="active-path" data-old_color="#000000" fill="#FAB2B5"/>
	</g>
</g></g> </svg>
