<?xml version="1.0"?>
<svg xmlns="http://www.w3.org/2000/svg" height="512px" viewBox="0 0 58 60" width="512px"><g><g id="023---Moisturising-Face"><path id="Shape" d="m9.34 41.463-2.474-5.773c-.76988494-1.743563-2.80743704-2.5328849-4.551-1.763-1.74356295.7698849-2.53288494 2.807437-1.763 4.551 4.557 10.025 4.779 11.111 6.8 13.13l8.1 8.1c.1874927.1875494.4418052.2929434.707.293h10.841c.5522847 0 1-.4477153 1-1 .1345269-2.0276182.023387-4.0640645-.331-6.065.8853461.0839851 1.7766539.0839851 2.662 0-.431 1.83-.331 2.954-.331 6.064 0 .5522847.4477153 1 1 1h10.845c.2651948-.0000566.5195073-.1054506.707-.293l8.1-8.1c2.018-2.019 2.179-2.971 6.8-13.13.4980282-1.1278875.3565045-2.4357934-.3712606-3.4310422s-1.9312067-1.5266386-3.157-1.394-2.2877112.9091547-2.7857394 2.0370422l-2.478 5.774c-1.160816-.8031-2.6035312-1.0867881-3.982-.783.4627164-1.1348894.8554525-2.2970674 1.176-3.48 1.985-.4 6.794-2.143 6.794-9.7 0-2.561-.446-5.717-2.993-6.065 3.6001483-5.5719797 5.0387965-12.26800664 4.045-18.827l-.4-1.825c-.1020897-.45927489-.5105209-.78527047-.981-.783h-46.638c-.4686077.00008042-.87431214.32555846-.976.783l-.42 1.9c-.97600462 6.5401167.46873597 13.2115966 4.063 18.762-2.522.376-2.959 3.523-2.959 6.059 0 7.56 4.813 9.3 6.8 9.7.3223748 1.1862533.7167731 2.3517488 1.181 3.49-1.3916759-.3231684-2.8551107-.0439175-4.03.769zm16.66 16.537h-9.431l-7.8-7.806c-1.633-1.629-1.631-2.061-6.396-12.544-.20935765-.4742701-.14979202-1.0242047.1562591-1.4426487.30605111-.4184441.81209126-.6418261 1.32750001-.5860001.51540876.0558261.96188326.3823787 1.17124089.8566488 4.051 9.454 2.476 7.151 10.42 15.1.2510745.2599566.6228779.3642126.9725073.2726972.3496295-.0915155.6226744-.3645604.7141899-.7141899.0915154-.3496294-.0127406-.7214328-.2726972-.9725073-5.478-5.477-5.737-5.629-6.572-6.908 1.1197987-.9296907 2.7423202-.9322095 3.865-.006 2.0828187 1.9098533 4.4890309 3.4336297 7.106 4.5 2.339.777 4.739 3.808 4.739 8.05zm.957-7.175c-.9289228-2.2856617-2.7612251-4.0857548-5.063-4.974-1.9651143-.7949503-3.7886737-1.9025938-5.4-3.28-3.436-6.088-3.878-13.425-3.883-20.416 2.119-3.734 7.677-12.347 16.389-17.602 8.731 5.294 14.3 13.92 16.426 17.664-.016 7.1-.44 14.1-3.832 20.287-1.6352977 1.4059708-3.4885243 2.5364154-5.487 3.347-2.3036898.8900774-4.1370733 2.6926994-5.066 4.981-1.3536946.2063502-2.7310207.2039894-4.084-.007zm20.753-7.574c-.831 1.274-1.072 1.408-6.572 6.908-.3789722.3923789-.3735524 1.0160848.0121814 1.4018186s1.0094397.3911536 1.4018186.0121814c7.868-7.867 6.367-5.636 10.42-15.095.2093576-.4742701.6558321-.8008228 1.1712409-.8566488s1.0214489.167556 1.3275.586c.3060511.4184441.3656168.9683787.1562591 1.4426488-4.694 10.327-4.723 10.875-6.39 12.544l-7.806 7.806h-9.431v-2.2c-.0341232-2.1708416.667236-4.2893691 1.99-6.011 2.345-2.932 3.093-.847 9.855-6.539 1.1214799-.9276586 2.7440003-.9272388 3.865.001zm2.938-15.751c0 5.035-2.441 6.837-4.256 7.483.675627-3.5605228 1.0131286-7.1769459 1.008-10.801.925-.657 1.745-.931 2.2-.711.245.118 1.048.76 1.048 4.029zm.871-25.5c1.3244366 6.68381278-.1581883 13.6181581-4.1 19.176-.095-7.469-2.068-12.586-6.034-15.62-.4387902-.33551299-1.066487-.25179023-1.402.187s-.2517902 1.06648701.187 1.402c2.891 2.211 4.548 5.829 5.065 10.95-4.01-6.09-10.203-12.577-16.665-16.095zm-45.036 0h13.639c-2.2311766 1.47785169-4.2212109 3.29080664-5.9 5.375-.345178.43133439-.2753344 1.06082202.156 1.40599998s1.060822.27533439 1.406-.15599998c2.235219-2.76009517 5.0509149-4.99401034 8.247-6.543 1.015852.39926495 2.0102011.85121146 2.979 1.354-8.394 5.404-13.755 13.477-16.271 17.964-4.06526641-5.588722-5.60839999-12.62274255-4.256-19.4zm.906 25.5c0-3.273.8-3.915 1.05-4.033.446-.215 1.283.063 2.2.711-.0050305 3.6257521.3328066 7.2438565 1.009 10.806-1.815-.642-4.259-2.443-4.259-7.484z" data-original="#000000" class="active-path" data-old_color="#000000" fill="#FFB6B9"/><path id="Shape" d="m17.447 21.735c1.042756-.5241503 2.2517403-.6098377 3.358-.238l3.879 1.293c.3394023.1128959.7132522.0361471.9807241-.201336.2674719-.237483.3879305-.599621.3160001-.95-.0719305-.350379-.3253219-.6357681-.6647242-.748664l-3.879-1.29c-1.6091008-.5405204-3.367483-.4155903-4.884.347-.3224865.158024-.5354742.4768371-.5580026.8352525-.0225283.3584153.1488625.7013887.4490237.8985495.3001611.1971608.6829949.2182297 1.0029789.055198z" data-original="#000000" class="active-path" data-old_color="#000000" fill="#FFB6B9"/><path id="Shape" d="m33 22.841c.233 0 0 .055 4.2-1.344 1.1061301-.372853 2.3155155-.2871372 3.358.238.319984.1630317.7028178.1419628 1.0029789-.055198.3001612-.1971608.471552-.5401342.4490237-.8985495-.0225284-.3584154-.2355161-.6772285-.5580026-.8352525-1.5168882-.7625374-3.2755548-.8874622-4.885-.347l-3.878 1.293c-.4648693.1544237-.7494459.6228572-.672258 1.1065845.0771879.4837274.4934154.8403342.983258.8424155z" data-original="#000000" class="active-path" data-old_color="#000000" fill="#FFB6B9"/><path id="Shape" d="m24.945 26.679c-.1773336-.5219338-.7435921-.8019321-1.266-.626-.035.011-3.445 1.123-6.079-.853-.3960804-.2952152-.9483792-.2569791-1.3.09-.3511209.3632656-.8045884.6109286-1.3.71-.5522847 0-1 .4477153-1 1s.4477153 1 1 1c.7467355-.0400537 1.4641538-.3038155 2.059-.757.151.09.3.17.454.247-.1340903.2034842-.3087328.3771054-.513.51-.5522847 0-1 .4477153-1 1 0 1.229 1.847 1.7 3.473-.819 1.6111637.3291562 3.2791971.2483506 4.851-.235.5204627-.1794014.7980392-.7457291.621-1.267z" data-original="#000000" class="active-path" data-old_color="#000000" fill="#FFB6B9"/><path id="Shape" d="m40.4 25.2c-2.621 1.965-6.008.877-6.078.853-.5227375-.178388-1.091112.1007625-1.2695.6235-.1783879.5227375.1007625 1.091112.6235 1.2695 1.5716688.4841161 3.2398958.5649311 4.851.235.508.789 1.379 1.819 2.473 1.819.5570459.0028164 1.0126955-.4430247 1.022-1 .0056485-.2632661-.0949969-.5177078-.2792108-.7058732-.1842139-.1881653-.4364625-.2941874-.6997892-.2941268-.2215905-.1272115-.4105663-.3042052-.552-.517.15-.077.3-.155.45-.245.5942558.4549744 1.3117255.7204974 2.059.762.5522847 0 1-.4477153 1-1s-.4477153-1-1-1c-.4926367-.0993298-.9435153-.3458659-1.293-.707-.3518492-.3518644-.9088739-.3914997-1.307-.093z" data-original="#000000" class="active-path" data-old_color="#000000" fill="#FFB6B9"/><path id="Shape" d="m25.445 34.832c2.1514356 1.439441 4.9585644 1.439441 7.11 0 .297245-.1982824.4661283-.5400812.4430332-.8966441s-.2346599-.6737196-.555-.832c-.3203401-.1582805-.7007882-.1336383-.9980332.0646441-1.4799362.9891491-3.4100638.9891491-4.89 0-.4595009-.306518-1.0804819-.1825009-1.387.277-.306518.4595009-.1825009 1.080482.277 1.387z" data-original="#000000" class="active-path" data-old_color="#000000" fill="#FFB6B9"/><path id="Shape" d="m35 40.8c-.0030208-.3350044-.1443462-.6538688-.3905186-.8811048-.2461724-.2272361-.575306-.3426416-.9094814-.3188952-.829 0-3.283-1.6-4.7-1.6-1.436 0-3.856 1.6-4.695 1.6-.334934-.0248938-.6652321.0899637-.9124569.3172969-.2472248.2273331-.3893205.5468607-.3925431.8827031 0 1.411 2.825 3.2 6 3.2s6-1.79 6-3.2zm-6-.8c1.076232.3152377 2.1220748.7262121 3.125 1.228-1.9562805 1.0289672-4.2937195 1.0289672-6.25 0 1.0024861-.5027729 2.0484191-.9137827 3.125-1.228z" data-original="#000000" class="active-path" data-old_color="#000000" fill="#FFB6B9"/><path id="Shape" d="m30 46h-2c-.5522847 0-1 .4477153-1 1s.4477153 1 1 1h2c.5522847 0 1-.4477153 1-1s-.4477153-1-1-1z" data-original="#000000" class="active-path" data-old_color="#000000" fill="#FFB6B9"/><circle id="Oval" cx="12" cy="11" r="1" data-original="#000000" class="active-path" data-old_color="#000000" fill="#FFB6B9"/></g></g> </svg>
