<?xml version="1.0"?>
<svg xmlns="http://www.w3.org/2000/svg" id="Capa_1" enable-background="new 0 0 500.984 500.984" height="512px" viewBox="0 0 500.984 500.984" width="512px"><g><g><path d="m377.305 218.624c-.341-1.311-.965-2.568-1.796-3.637-5.28-10.5-11.861-21.781-20.029-33.961-3.736-5.573-7.051-11.523-9.853-17.685-5.305-11.673-23.527-3.44-18.213 8.25 3.252 7.154 7.103 14.065 11.445 20.541 5.719 8.529 10.589 16.508 14.733 24.014-67.193 27.055-150.06 38.896-217.855 6.637 18.707-41.788 36.936-100.798 27.455-159.393-6.234-38.526-21.599-58.731-22.25-59.572-7.845-10.139-23.723 2.004-15.857 12.167.133.175 13.368 17.961 18.587 52.008 8.787 57.313-11.46 115.868-30.008 154.92-1.581 3.226-12.663 28.418-5.251 86.729 5.543 43.605 19.121 86.025 40.358 126.083 20.87 39.368 23.581 52.319 23.777 56.061.674 12.805 20.656 11.955 19.973-1.047-.219-4.165-.885-16.842-26.073-64.353-20.105-37.923-32.955-78.047-38.194-119.256-3.272-25.739-2.626-45.224-.822-58.273 54.019 37.429 90.703 79.119 100.233 90.46-2.639 66.882-7.08 139.858-10.097 148.542-4.381 12.053 14.426 18.853 18.801 6.809 5.412-14.893 10.081-124.258 11.279-154.511 10.679-12.538 63.484-72.964 115.435-104.85 16.942 38.977 12.442 63.896 8.049 88.189-8.436 46.656-27.886 91.293-44.796 135.398-7.1 18.518-10.272 26.835-11.056 29.907-3.153 12.374 16.093 17.325 19.38 4.932.601-2.267 5.338-14.622 10.354-27.702 17.367-45.294 37.129-91.074 45.8-138.989 4.81-26.608 10.577-58.501-13.509-108.418zm-139.263 102.049c-11.511-13.178-35.292-38.632-68.712-65.463 45.138 10.455 92.624 7.926 137.425-2.969-30.488 26.023-56.317 54.265-68.713 68.432z" data-original="#000000" class="active-path" data-old_color="#000000" fill="#FFB6B9"/><path d="m322.835 98.849c5.381.324 10.246-4.017 10.554-9.397 2.38-41.601 17.022-75.158 17.17-75.493 5.192-11.717-13.078-19.814-18.288-8.083-.662 1.492-16.253 37.057-18.85 82.437-.315 5.504 3.9 10.222 9.414 10.536z" data-original="#000000" class="active-path" data-old_color="#000000" fill="#FFB6B9"/><path d="m232.382 186.176c5.523 0 10-4.47 10-9.983v-20.993c0-12.789-20-12.814-20 0v20.993c0 5.513 4.477 9.983 10 9.983z" data-original="#000000" class="active-path" data-old_color="#000000" fill="#FFB6B9"/><path d="m334.283 123.335c-2.328-3.557-6.905-5.203-10.981-4.069-4.194 1.167-7.221 5.011-7.323 9.365-.208 8.887 11.031 13.622 17.215 7.145 3.196-3.347 3.663-8.585 1.089-12.441z" data-original="#000000" class="active-path" data-old_color="#000000" fill="#FFB6B9"/></g></g> </svg>
