<?xml version="1.0"?>
<svg xmlns="http://www.w3.org/2000/svg" xmlns:xlink="http://www.w3.org/1999/xlink" version="1.1" id="Capa_1" x="0px" y="0px" viewBox="0 0 512.001 512.001" style="enable-background:new 0 0 512.001 512.001;" xml:space="preserve" width="512px" height="512px"><g><g>
	<g>
		<path d="M255.812,0c-42.113,0-83.589,11.004-119.945,31.82c-3.594,2.059-4.839,6.64-2.781,10.233    c2.058,3.595,6.64,4.839,10.233,2.781c34.091-19.52,72.99-29.838,112.493-29.838c154.649,0,257.368,148.011,202.354,286.793    c-5.262,13.279-3.044,22.638-3.568,35.54c0,2.204-1.633,4.033-3.751,4.344c-0.004-15.08-0.01-41.915-0.014-56.943    c0-4.142-3.356-7.499-7.499-7.499c-4.142,0-7.499,3.356-7.499,7.499c0.011,46.333,0.013,56.617,0.013,57.56    c0-0.67-0.001-5.696,0.001,0.068c0,7.917,6.442,14.358,14.359,14.358c10.689,0,19.386-8.696,19.386-19.387    c0.461-14.074-1.311-20.368,2.515-30.014C531.173,158.313,420.7,0,255.812,0z" data-original="#000000" class="active-path" data-old_color="#000000" fill="#F6AFB2"/>
	</g>
</g><g>
	<g>
		<path d="M427.418,180.875c-32.737-36.332-64.65-12.463-66.264-12.213c-46.692,24.651-70.129,37.024-105.347,37.025    c-37.601-0.001-63.632-15.008-108.268-38.574c-7.962-4.202-15.973-6.336-23.816-6.341c-0.004,0-0.008,0-0.012,0    c-14.498,0-28.042,7.047-40.25,20.942c-14.619,16.636-22.669,38.368-22.669,61.194c0,0.124-0.013,97.591-0.013,98.306    c-8.538-3.684,0.734-19.107-7.205-39.135c-33.715-85.052-8.319-181.659,61.773-238.205c3.223-2.601,3.728-7.321,1.128-10.544    c-2.6-3.224-7.322-3.728-10.544-1.128C31.703,112.085,3.063,215.356,39.633,307.609c3.63,9.158,1.968,15.18,2.398,27.912    c0,11.687,9.508,21.196,21.196,21.196c6.92,0,12.55-5.63,12.55-12.551c0-3.657,0.013-101.126,0.013-101.256    c-0.001-33.743,23.662-67.139,47.919-67.139c1.113,0.156,7.367-0.388,16.83,4.606c48.417,25.561,75.289,40.307,115.282,40.307    c40.89-0.001,68.781-15.765,115.27-40.307c17.304-9.134,31.921-4.186,45.188,10.537c22.911,25.425,19.154,56.204,19.559,58.822    c0,4.142,3.356,7.499,7.499,7.499c4.142,0,7.499-3.356,7.499-7.499C450.404,247.045,454.653,211.103,427.418,180.875z" data-original="#000000" class="active-path" data-old_color="#000000" fill="#F6AFB2"/>
	</g>
</g><g>
	<g>
		<path d="M413.716,418.448c-1.108-12.332-17.47-16.06-23.731-5.35c-6.72,11.505-15.514,17.338-26.138,17.338    c-22.933,0-46.823-62.523-107.14-17.84c-0.535,0.396-1.253,0.395-1.786,0.001c-60.366-44.726-84.169,17.839-107.142,17.839    c-10.626,0-19.42-5.835-26.14-17.341c-6.245-10.699-22.603-7.061-23.723,5.279c-3.652,40.271,21.987,77.982,60.966,89.666    c3.966,1.188,8.146-1.063,9.335-5.03c1.189-3.967-1.063-8.147-5.03-9.336c-29.954-8.978-50.369-36.549-50.618-67.1    c9.131,12.369,21.188,18.858,35.208,18.858c34.425,0,46.444-59.139,98.214-20.785c5.874,4.352,13.766,4.352,19.64,0    c51.726-38.325,63.841,20.785,98.213,20.785c14.016,0,26.071-6.488,35.202-18.85c-0.169,17.218-6.803,34.08-18.71,47.103    c-29.247,31.993-81.73,28.266-105.359,5.741c-10.747-10.244-27.586-10.244-38.333,0c-10.242,9.763-24.176,15.492-41.413,17.031    c-4.124,0.369-7.17,4.011-6.802,8.137c0.369,4.124,4.001,7.169,8.135,6.803c20.702-1.849,37.668-8.952,50.428-21.114    c4.945-4.715,12.693-4.713,17.638,0c29.187,27.821,91.387,32.236,126.777-6.478C407.715,465.97,415.845,442.148,413.716,418.448z" data-original="#000000" class="active-path" data-old_color="#000000" fill="#F6AFB2"/>
	</g>
</g></g> </svg>
